<mxfile host="app.diagrams.net" modified="2023-09-04T18:49:32.000Z" agent="Mozilla/5.0 (Windows NT 10.0; Win64; x64) AppleWebKit/537.36 (KHTML, like Gecko) Chrome/116.0.0.0 Safari/537.36" etag="zIaBRT7a9Kp_GCYa5qLm" version="21.7.0" type="device">
  <diagram name="PÃ¡gina-1" id="uWnKKKi0tgGWrALqQC6V">
    <mxGraphModel dx="1434" dy="758" grid="1" gridSize="10" guides="1" tooltips="1" connect="1" arrows="1" fold="1" page="1" pageScale="1" pageWidth="1169" pageHeight="827" math="0" shadow="0">
      <root>
        <mxCell id="0" />
        <mxCell id="1" parent="0" />
        <mxCell id="uqDPK-gXfroawrIRd6PU-1" value="" style="ellipse;html=1;shape=startState;fillColor=#000000;strokeColor=#000000;" vertex="1" parent="1">
          <mxGeometry x="130" y="170" width="30" height="30" as="geometry" />
        </mxCell>
        <mxCell id="uqDPK-gXfroawrIRd6PU-4" value="User" style="text;html=1;strokeColor=none;fillColor=none;align=center;verticalAlign=middle;whiteSpace=wrap;rounded=0;" vertex="1" parent="1">
          <mxGeometry x="115" y="150" width="60" height="30" as="geometry" />
        </mxCell>
        <mxCell id="uqDPK-gXfroawrIRd6PU-5" value="" style="endArrow=block;html=1;rounded=0;endFill=1;" edge="1" parent="1" target="uqDPK-gXfroawrIRd6PU-6">
          <mxGeometry width="50" height="50" relative="1" as="geometry">
            <mxPoint x="144.5" y="198" as="sourcePoint" />
            <mxPoint x="144.5" y="238" as="targetPoint" />
          </mxGeometry>
        </mxCell>
        <mxCell id="uqDPK-gXfroawrIRd6PU-6" value="Visitor" style="rounded=1;whiteSpace=wrap;html=1;" vertex="1" parent="1">
          <mxGeometry x="84.5" y="240" width="120" height="60" as="geometry" />
        </mxCell>
        <mxCell id="uqDPK-gXfroawrIRd6PU-7" value="" style="endArrow=block;html=1;rounded=0;endFill=1;edgeStyle=orthogonalEdgeStyle;" edge="1" parent="1" target="uqDPK-gXfroawrIRd6PU-8">
          <mxGeometry width="50" height="50" relative="1" as="geometry">
            <mxPoint x="144" y="300" as="sourcePoint" />
            <mxPoint x="340" y="360" as="targetPoint" />
            <Array as="points">
              <mxPoint x="144" y="360" />
              <mxPoint x="281" y="360" />
            </Array>
          </mxGeometry>
        </mxCell>
        <mxCell id="uqDPK-gXfroawrIRd6PU-8" value="" style="rhombus;whiteSpace=wrap;html=1;" vertex="1" parent="1">
          <mxGeometry x="380" y="340" width="40" height="40" as="geometry" />
        </mxCell>
        <mxCell id="uqDPK-gXfroawrIRd6PU-9" value="" style="endArrow=none;html=1;rounded=0;endFill=0;edgeStyle=orthogonalEdgeStyle;" edge="1" parent="1">
          <mxGeometry width="50" height="50" relative="1" as="geometry">
            <mxPoint x="420" y="359.5" as="sourcePoint" />
            <mxPoint x="490" y="270" as="targetPoint" />
          </mxGeometry>
        </mxCell>
        <mxCell id="uqDPK-gXfroawrIRd6PU-13" value="&lt;font style=&quot;font-size: 12px;&quot;&gt;No&lt;/font&gt;" style="edgeLabel;html=1;align=center;verticalAlign=middle;resizable=0;points=[];" vertex="1" connectable="0" parent="uqDPK-gXfroawrIRd6PU-9">
          <mxGeometry x="-0.5514" relative="1" as="geometry">
            <mxPoint as="offset" />
          </mxGeometry>
        </mxCell>
        <mxCell id="uqDPK-gXfroawrIRd6PU-10" value="" style="endArrow=block;html=1;rounded=0;endFill=1;" edge="1" parent="1">
          <mxGeometry width="50" height="50" relative="1" as="geometry">
            <mxPoint x="490" y="270" as="sourcePoint" />
            <mxPoint x="204.5" y="269.5" as="targetPoint" />
          </mxGeometry>
        </mxCell>
        <mxCell id="uqDPK-gXfroawrIRd6PU-11" value="Submitted form?" style="text;html=1;strokeColor=none;fillColor=none;align=center;verticalAlign=middle;whiteSpace=wrap;rounded=0;" vertex="1" parent="1">
          <mxGeometry x="335" y="310" width="130" height="30" as="geometry" />
        </mxCell>
        <mxCell id="uqDPK-gXfroawrIRd6PU-14" value="" style="endArrow=classic;html=1;rounded=0;edgeStyle=orthogonalEdgeStyle;" edge="1" parent="1">
          <mxGeometry width="50" height="50" relative="1" as="geometry">
            <mxPoint x="399.5" y="384" as="sourcePoint" />
            <mxPoint x="190" y="470" as="targetPoint" />
            <Array as="points">
              <mxPoint x="400" y="440" />
              <mxPoint x="191" y="440" />
            </Array>
          </mxGeometry>
        </mxCell>
        <mxCell id="uqDPK-gXfroawrIRd6PU-16" value="&lt;font style=&quot;font-size: 12px;&quot;&gt;Yes&lt;/font&gt;" style="edgeLabel;html=1;align=center;verticalAlign=middle;resizable=0;points=[];" vertex="1" connectable="0" parent="uqDPK-gXfroawrIRd6PU-14">
          <mxGeometry x="-0.7487" y="2" relative="1" as="geometry">
            <mxPoint as="offset" />
          </mxGeometry>
        </mxCell>
        <mxCell id="uqDPK-gXfroawrIRd6PU-15" value="Prospect" style="rounded=1;whiteSpace=wrap;html=1;" vertex="1" parent="1">
          <mxGeometry x="130" y="470" width="120" height="60" as="geometry" />
        </mxCell>
        <mxCell id="uqDPK-gXfroawrIRd6PU-17" value="" style="endArrow=block;html=1;rounded=0;endFill=1;edgeStyle=orthogonalEdgeStyle;" edge="1" parent="1">
          <mxGeometry width="50" height="50" relative="1" as="geometry">
            <mxPoint x="189.5" y="530" as="sourcePoint" />
            <mxPoint x="390" y="600" as="targetPoint" />
            <Array as="points">
              <mxPoint x="190" y="600" />
              <mxPoint x="380" y="600" />
            </Array>
          </mxGeometry>
        </mxCell>
        <mxCell id="uqDPK-gXfroawrIRd6PU-18" value="" style="rhombus;whiteSpace=wrap;html=1;" vertex="1" parent="1">
          <mxGeometry x="390" y="580" width="40" height="40" as="geometry" />
        </mxCell>
        <mxCell id="uqDPK-gXfroawrIRd6PU-19" value="" style="endArrow=block;html=1;rounded=0;endFill=1;edgeStyle=orthogonalEdgeStyle;" edge="1" parent="1">
          <mxGeometry width="50" height="50" relative="1" as="geometry">
            <mxPoint x="430" y="599.5" as="sourcePoint" />
            <mxPoint x="600" y="540" as="targetPoint" />
          </mxGeometry>
        </mxCell>
        <mxCell id="uqDPK-gXfroawrIRd6PU-21" value="&lt;font style=&quot;font-size: 12px;&quot;&gt;No&lt;/font&gt;" style="edgeLabel;html=1;align=center;verticalAlign=middle;resizable=0;points=[];" vertex="1" connectable="0" parent="uqDPK-gXfroawrIRd6PU-19">
          <mxGeometry x="-0.3579" y="-2" relative="1" as="geometry">
            <mxPoint as="offset" />
          </mxGeometry>
        </mxCell>
        <mxCell id="uqDPK-gXfroawrIRd6PU-20" value="Disqualified Prospect" style="rounded=1;whiteSpace=wrap;html=1;" vertex="1" parent="1">
          <mxGeometry x="525" y="470" width="120" height="60" as="geometry" />
        </mxCell>
        <mxCell id="uqDPK-gXfroawrIRd6PU-22" value="" style="endArrow=block;html=1;rounded=0;endFill=1;edgeStyle=orthogonalEdgeStyle;" edge="1" parent="1">
          <mxGeometry width="50" height="50" relative="1" as="geometry">
            <mxPoint x="520" y="500" as="sourcePoint" />
            <mxPoint x="409.5" y="580" as="targetPoint" />
          </mxGeometry>
        </mxCell>
        <mxCell id="uqDPK-gXfroawrIRd6PU-23" value="Qualified your CRM conditions?" style="text;html=1;strokeColor=none;fillColor=none;align=center;verticalAlign=middle;whiteSpace=wrap;rounded=0;" vertex="1" parent="1">
          <mxGeometry x="240" y="560" width="130" height="30" as="geometry" />
        </mxCell>
        <mxCell id="uqDPK-gXfroawrIRd6PU-24" value="" style="endArrow=block;html=1;rounded=0;endFill=1;edgeStyle=orthogonalEdgeStyle;" edge="1" parent="1">
          <mxGeometry width="50" height="50" relative="1" as="geometry">
            <mxPoint x="409.5" y="620" as="sourcePoint" />
            <mxPoint x="200" y="700" as="targetPoint" />
            <Array as="points">
              <mxPoint x="410" y="680" />
              <mxPoint x="201" y="680" />
            </Array>
          </mxGeometry>
        </mxCell>
        <mxCell id="uqDPK-gXfroawrIRd6PU-36" value="&lt;font style=&quot;font-size: 12px;&quot;&gt;Yes&lt;/font&gt;" style="edgeLabel;html=1;align=center;verticalAlign=middle;resizable=0;points=[];" vertex="1" connectable="0" parent="uqDPK-gXfroawrIRd6PU-24">
          <mxGeometry x="-0.8752" y="2" relative="1" as="geometry">
            <mxPoint as="offset" />
          </mxGeometry>
        </mxCell>
        <mxCell id="uqDPK-gXfroawrIRd6PU-25" value="Lead" style="rounded=1;whiteSpace=wrap;html=1;" vertex="1" parent="1">
          <mxGeometry x="140" y="700" width="120" height="60" as="geometry" />
        </mxCell>
        <mxCell id="uqDPK-gXfroawrIRd6PU-28" value="Unsuccessfull Lead" style="rounded=1;whiteSpace=wrap;html=1;" vertex="1" parent="1">
          <mxGeometry x="550" y="700" width="120" height="60" as="geometry" />
        </mxCell>
        <mxCell id="uqDPK-gXfroawrIRd6PU-29" value="" style="endArrow=block;html=1;rounded=0;endFill=1;edgeStyle=orthogonalEdgeStyle;" edge="1" parent="1">
          <mxGeometry width="50" height="50" relative="1" as="geometry">
            <mxPoint x="194.5" y="760" as="sourcePoint" />
            <mxPoint x="395" y="830" as="targetPoint" />
            <Array as="points">
              <mxPoint x="195" y="830" />
              <mxPoint x="385" y="830" />
            </Array>
          </mxGeometry>
        </mxCell>
        <mxCell id="uqDPK-gXfroawrIRd6PU-30" value="" style="rhombus;whiteSpace=wrap;html=1;" vertex="1" parent="1">
          <mxGeometry x="395" y="810" width="40" height="40" as="geometry" />
        </mxCell>
        <mxCell id="uqDPK-gXfroawrIRd6PU-31" value="" style="endArrow=block;html=1;rounded=0;endFill=1;edgeStyle=orthogonalEdgeStyle;entryX=0.5;entryY=1;entryDx=0;entryDy=0;" edge="1" parent="1" target="uqDPK-gXfroawrIRd6PU-28">
          <mxGeometry width="50" height="50" relative="1" as="geometry">
            <mxPoint x="435" y="829.5" as="sourcePoint" />
            <mxPoint x="605" y="770" as="targetPoint" />
          </mxGeometry>
        </mxCell>
        <mxCell id="uqDPK-gXfroawrIRd6PU-32" value="&lt;font style=&quot;font-size: 12px;&quot;&gt;No&lt;/font&gt;" style="edgeLabel;html=1;align=center;verticalAlign=middle;resizable=0;points=[];" vertex="1" connectable="0" parent="uqDPK-gXfroawrIRd6PU-31">
          <mxGeometry x="-0.3579" y="-2" relative="1" as="geometry">
            <mxPoint as="offset" />
          </mxGeometry>
        </mxCell>
        <mxCell id="uqDPK-gXfroawrIRd6PU-33" value="Qualified CRM opportunity condition?" style="text;html=1;strokeColor=none;fillColor=none;align=center;verticalAlign=middle;whiteSpace=wrap;rounded=0;" vertex="1" parent="1">
          <mxGeometry x="265" y="790" width="130" height="30" as="geometry" />
        </mxCell>
        <mxCell id="uqDPK-gXfroawrIRd6PU-34" value="" style="endArrow=block;html=1;rounded=0;endFill=1;edgeStyle=orthogonalEdgeStyle;" edge="1" parent="1">
          <mxGeometry width="50" height="50" relative="1" as="geometry">
            <mxPoint x="414" y="850" as="sourcePoint" />
            <mxPoint x="204.5" y="930" as="targetPoint" />
            <Array as="points">
              <mxPoint x="414.5" y="910" />
              <mxPoint x="205.5" y="910" />
            </Array>
          </mxGeometry>
        </mxCell>
        <mxCell id="uqDPK-gXfroawrIRd6PU-35" value="&lt;font style=&quot;font-size: 12px;&quot;&gt;Yes&lt;/font&gt;" style="edgeLabel;html=1;align=center;verticalAlign=middle;resizable=0;points=[];" vertex="1" connectable="0" parent="uqDPK-gXfroawrIRd6PU-34">
          <mxGeometry x="-0.8198" y="2" relative="1" as="geometry">
            <mxPoint as="offset" />
          </mxGeometry>
        </mxCell>
        <mxCell id="uqDPK-gXfroawrIRd6PU-37" value="Opportunity" style="rounded=1;whiteSpace=wrap;html=1;" vertex="1" parent="1">
          <mxGeometry x="145" y="930" width="120" height="60" as="geometry" />
        </mxCell>
        <mxCell id="uqDPK-gXfroawrIRd6PU-38" value="Lost Opportunity" style="rounded=1;whiteSpace=wrap;html=1;" vertex="1" parent="1">
          <mxGeometry x="560" y="930" width="120" height="60" as="geometry" />
        </mxCell>
        <mxCell id="uqDPK-gXfroawrIRd6PU-41" value="" style="endArrow=block;html=1;rounded=0;endFill=1;edgeStyle=orthogonalEdgeStyle;" edge="1" parent="1">
          <mxGeometry width="50" height="50" relative="1" as="geometry">
            <mxPoint x="202" y="990" as="sourcePoint" />
            <mxPoint x="402.5" y="1060" as="targetPoint" />
            <Array as="points">
              <mxPoint x="202.5" y="1060" />
              <mxPoint x="392.5" y="1060" />
            </Array>
          </mxGeometry>
        </mxCell>
        <mxCell id="uqDPK-gXfroawrIRd6PU-42" value="" style="rhombus;whiteSpace=wrap;html=1;" vertex="1" parent="1">
          <mxGeometry x="402.5" y="1040" width="40" height="40" as="geometry" />
        </mxCell>
        <mxCell id="uqDPK-gXfroawrIRd6PU-43" value="" style="endArrow=block;html=1;rounded=0;endFill=1;edgeStyle=orthogonalEdgeStyle;entryX=0.5;entryY=1;entryDx=0;entryDy=0;" edge="1" parent="1">
          <mxGeometry width="50" height="50" relative="1" as="geometry">
            <mxPoint x="442.5" y="1059.5" as="sourcePoint" />
            <mxPoint x="617.5" y="990" as="targetPoint" />
          </mxGeometry>
        </mxCell>
        <mxCell id="uqDPK-gXfroawrIRd6PU-44" value="&lt;font style=&quot;font-size: 12px;&quot;&gt;No&lt;/font&gt;" style="edgeLabel;html=1;align=center;verticalAlign=middle;resizable=0;points=[];" vertex="1" connectable="0" parent="uqDPK-gXfroawrIRd6PU-43">
          <mxGeometry x="-0.3579" y="-2" relative="1" as="geometry">
            <mxPoint as="offset" />
          </mxGeometry>
        </mxCell>
        <mxCell id="uqDPK-gXfroawrIRd6PU-45" value="Won opportunity?" style="text;html=1;strokeColor=none;fillColor=none;align=center;verticalAlign=middle;whiteSpace=wrap;rounded=0;" vertex="1" parent="1">
          <mxGeometry x="265" y="1030" width="130" height="30" as="geometry" />
        </mxCell>
        <mxCell id="uqDPK-gXfroawrIRd6PU-46" value="" style="endArrow=block;html=1;rounded=0;endFill=1;" edge="1" parent="1">
          <mxGeometry width="50" height="50" relative="1" as="geometry">
            <mxPoint x="422" y="1080" as="sourcePoint" />
            <mxPoint x="422" y="1140" as="targetPoint" />
          </mxGeometry>
        </mxCell>
        <mxCell id="uqDPK-gXfroawrIRd6PU-47" value="&lt;font style=&quot;font-size: 12px;&quot;&gt;Yes&lt;/font&gt;" style="edgeLabel;html=1;align=center;verticalAlign=middle;resizable=0;points=[];" vertex="1" connectable="0" parent="uqDPK-gXfroawrIRd6PU-46">
          <mxGeometry x="-0.1" y="1" relative="1" as="geometry">
            <mxPoint as="offset" />
          </mxGeometry>
        </mxCell>
        <mxCell id="uqDPK-gXfroawrIRd6PU-48" value="Closed won" style="rounded=1;whiteSpace=wrap;html=1;" vertex="1" parent="1">
          <mxGeometry x="362.5" y="1140" width="120" height="60" as="geometry" />
        </mxCell>
        <mxCell id="uqDPK-gXfroawrIRd6PU-49" value="" style="endArrow=block;html=1;rounded=0;endFill=1;edgeStyle=orthogonalEdgeStyle;exitX=0;exitY=0.5;exitDx=0;exitDy=0;" edge="1" parent="1" source="uqDPK-gXfroawrIRd6PU-28">
          <mxGeometry width="50" height="50" relative="1" as="geometry">
            <mxPoint x="525" y="730" as="sourcePoint" />
            <mxPoint x="414.5" y="810" as="targetPoint" />
          </mxGeometry>
        </mxCell>
        <mxCell id="uqDPK-gXfroawrIRd6PU-50" value="" style="endArrow=block;html=1;rounded=0;endFill=1;edgeStyle=orthogonalEdgeStyle;exitX=0;exitY=0.5;exitDx=0;exitDy=0;" edge="1" parent="1">
          <mxGeometry width="50" height="50" relative="1" as="geometry">
            <mxPoint x="558" y="960" as="sourcePoint" />
            <mxPoint x="422.5" y="1040" as="targetPoint" />
          </mxGeometry>
        </mxCell>
      </root>
    </mxGraphModel>
  </diagram>
</mxfile>
